<svg id="Слой_1" data-name="Слой 1" xmlns="http://www.w3.org/2000/svg" viewBox="0 0 152.79 127.27"><defs><style>.cls-1{fill:#1463aa;fill-rule:evenodd;}</style></defs><path class="cls-1" d="M330.75,444.93a20.71,20.71,0,0,1,4.38.47c4.49,1.25,4.73,5.69,5.08,9.74.16,1.89-.38,6.34-1.55,8.14-2,3.08-5.25,3-8.88,3-4.95,0-7.35-2.11-8.13-6.44-.66-3.71-.46-9.94,1.64-12.43,1.65-1.95,4-2.49,7.46-2.49Zm-15.3,7.77v6.07c0,7.46,4.67,12.14,12.14,12.14,5.65,0,11.5.67,15.37-3.33,4.35-4.51,4.24-20-.25-24.17-3.69-3.4-9-3.1-14.15-3.1-8.28,0-13.11,4.48-13.11,12.39Zm0,0" transform="translate(-221.98 -343.68)"/><path class="cls-1" d="M273,455.37H261.31v-9a.93.93,0,0,1,1-1H273c3.38,0,3.4,2.94,3.4,5.34,0,2.65-.76,4.62-3.4,4.62Zm-17.48-10.93v26.22h5.83V460.22h12.14c7.19,0,9-3.38,9-10.19,0-6.27-2.2-9.47-8.5-9.47H260.58c-2.9,0-5.1,1-5.1,3.88Zm0,0" transform="translate(-221.98 -343.68)"/><path class="cls-1" d="M238.24,445.66a17,17,0,0,1,1.43,3.19l3.92,9.92H232.66l2.6-6.63c.55-1.27,2.16-5.88,3-6.48Zm-16.26,25h6.07c.39-1.69,2.51-5.81,2.91-7.52h14.32c.43,1.83,2.37,5.17,2.92,7.52h6.07c-.09-1.11-6-14.66-6.63-16.19-1.1-2.79-2.23-5.3-3.36-8.05a35.69,35.69,0,0,0-1.82-4c-1.16-2-3-2.1-4.94-2.1-3.63,0-4.27,3.39-5.43,6l-8.48,20.17a26.5,26.5,0,0,0-1.63,4.19Zm0,0" transform="translate(-221.98 -343.68)"/><path class="cls-1" d="M361.34,470.66H374c1.16,0,.73-1.62.73-4.61-4.7,0-14.39.72-17.06-1.87-3.1-3-2.73-11.14-1.43-14.68a6,6,0,0,1,3.83-3.7c2-.62,8.23-.4,11-.39,3.66,0,3.16.77,3.16-4.12,0-.56-.17-.73-.73-.73H362.8c-6.76,0-11,2.32-12.72,8.16a35.44,35.44,0,0,0-.38,12.46c1.24,5.83,4.73,9.48,11.64,9.48Zm0,0" transform="translate(-221.98 -343.68)"/><path class="cls-1" d="M293.6,455.12c0,2.89,2,4,3.7,5.53,1.41,1.24,1.54,1.64,3.51,3.29l6,5.7c1.22,1.25,1.3,1,3.58,1,1.54,0,3.08,0,4.62,0-.26-.94-.15-.53-.86-1.08-3-2.31-10.14-9.38-13.37-11.88-3.89-3,.8-5.26,3.61-8.1l7.4-7.17c1.47-1.47,1.44-.69,1.76-1.87h-4.13c-2.08,0-2.49-.37-3.59.77L297.18,450c-1.29,1.3-3.58,2.81-3.58,5.16Zm0,0" transform="translate(-221.98 -343.68)"/><path class="cls-1" d="M286.32,441.29v28.64c0,1.22,2.07.73,5.34.73.56,0,.73-.17.73-.73V441.29c0-1.22-2.07-.73-5.34-.73-.56,0-.73.17-.73.73Zm0,0" transform="translate(-221.98 -343.68)"/><path class="cls-1" d="M331.13,343.68H265a5.11,5.11,0,0,0-5.12,5.11v66.14a5.12,5.12,0,0,0,5.12,5.12h66.14a5.11,5.11,0,0,0,5.11-5.12V348.79A5.11,5.11,0,0,0,331.13,343.68ZM290,345.6h16.43a3.13,3.13,0,0,1,3.12,3.13V351H286.86v-2.3A3.13,3.13,0,0,1,290,345.6Zm21.7,42.09h12.57V393h-9.44a3.12,3.12,0,0,1-3.13-3.12Zm12.57-12.38H311.69v-1.86a3.13,3.13,0,0,1,3.13-3.12h9.44Zm-51.79-5h9.12a3.13,3.13,0,0,1,3.13,3.12v1.86H272.47Zm14.39-7.89h22.68v2.72a3.12,3.12,0,0,1-3.12,3.12H290a3.13,3.13,0,0,1-3.13-3.12Zm22.68-3.4H286.86V355.4h22.68ZM262,348.73a3.13,3.13,0,0,1,3.12-3.13h16.43a3.13,3.13,0,0,1,3.13,3.13V351h-2.88a2.19,2.19,0,0,0,0,4.37h2.88v3.67a1.69,1.69,0,0,0,0,3.35v2.74a3.13,3.13,0,0,1-3.13,3.12h-9.12v-2a3.28,3.28,0,0,0-6.56,0v2h-.75a3.12,3.12,0,0,1-3.12-3.12Zm0,24.72a3.12,3.12,0,0,1,3.12-3.12h.75V393h-.75a3.12,3.12,0,0,1-3.12-3.12Zm22.68,41.15a3.13,3.13,0,0,1-3.13,3.13H265.16A3.13,3.13,0,0,1,262,414.6V398.18a3.13,3.13,0,0,1,3.12-3.13h.75v1.84a3.28,3.28,0,0,0,6.56,0v-1.84h9.12a3.13,3.13,0,0,1,3.13,3.13ZM281.59,393h-9.12v-5.31h12.25v2.19A3.12,3.12,0,0,1,281.59,393Zm28,21.6a3.13,3.13,0,0,1-3.12,3.13H290a3.13,3.13,0,0,1-3.13-3.13V398.18a3.13,3.13,0,0,1,3.13-3.13h16.43a3.13,3.13,0,0,1,3.12,3.13Zm24.83,0a3.13,3.13,0,0,1-3.13,3.13H314.82a3.13,3.13,0,0,1-3.13-3.13V398.18a3.13,3.13,0,0,1,3.13-3.13h9.44v1.84a3.28,3.28,0,1,0,6.55,0v-1.84h.43a3.13,3.13,0,0,1,3.13,3.13Zm0-24.72a3.12,3.12,0,0,1-3.13,3.12h-.43V370.33h.43a3.13,3.13,0,0,1,3.13,3.12Zm0-24.72a3.13,3.13,0,0,1-3.13,3.12h-.43v-2a3.28,3.28,0,1,0-6.55,0v2h-9.44a3.13,3.13,0,0,1-3.13-3.12v-2.73a1.69,1.69,0,0,0,0-3.37V355.4h2.94a2.19,2.19,0,1,0,0-4.37h-2.94v-2.3a3.13,3.13,0,0,1,3.13-3.13h16.42a3.13,3.13,0,0,1,3.13,3.13Z" transform="translate(-221.98 -343.68)"/></svg>